<svg width="32" height="32" viewBox="0 0 32 32" fill="none" xmlns="http://www.w3.org/2000/svg">
  <!-- Background circle with gradient -->
  <defs>
    <radialGradient id="bg" cx="0.3" cy="0.3" r="0.8">
      <stop offset="0%" style="stop-color:#F4D03F"/>
      <stop offset="100%" style="stop-color:#B7950B"/>
    </radialGradient>
    <linearGradient id="textGrad" x1="0%" y1="0%" x2="100%" y2="100%">
      <stop offset="0%" style="stop-color:#8B4513"/>
      <stop offset="100%" style="stop-color:#A0522D"/>
    </linearGradient>
  </defs>
  
  <!-- Background -->
  <circle cx="16" cy="16" r="15" fill="url(#bg)" stroke="#8B4513" stroke-width="2"/>
  
  <!-- Theater mask curve (top) -->
  <path d="M8 12 Q16 8 24 12 Q20 14 16 14 Q12 14 8 12" fill="#8B4513" opacity="0.3"/>
  
  <!-- Stylized "S" -->
  <path d="M10 14 Q14 12 16 16 Q18 20 22 18" stroke="url(#textGrad)" stroke-width="2.5" fill="none" stroke-linecap="round"/>
  
  <!-- Stylized "J" with quill flourish -->
  <path d="M20 14 L20 20 Q20 24 16 22" stroke="url(#textGrad)" stroke-width="2.5" fill="none" stroke-linecap="round"/>
  <path d="M18 14 L22 14" stroke="url(#textGrad)" stroke-width="2" fill="none" stroke-linecap="round"/>
  
  <!-- Quill tip detail -->
  <circle cx="14" cy="22" r="1" fill="#8B4513"/>
  
  <!-- Book spine accent -->
  <rect x="6" y="20" width="1" height="8" fill="#8B4513" opacity="0.4"/>
  <rect x="8" y="21" width="1" height="6" fill="#8B4513" opacity="0.4"/>
  
  <!-- Small star accent (performance) -->
  <path d="M25 8 L25.5 9 L26.5 9 L25.8 9.5 L26 10.5 L25 10 L24 10.5 L24.2 9.5 L23.5 9 L24.5 9 Z" fill="#F4D03F" opacity="0.7"/>
</svg>